<?xml version="1.0" encoding="utf-8"?>
<!-- Uploaded to: SVG Repo, www.svgrepo.com, Generator: SVG Repo Mixer Tools -->
<svg width="800px" height="800px" viewBox="0 0 24 24" xmlns="http://www.w3.org/2000/svg">
<defs>
<style>.cls-1{fill:none;stroke:#000000;stroke-linecap:round;stroke-linejoin:round;stroke-width:1.5px;fill-rule:evenodd;}</style>
</defs>
<g id="ic-weather-cloud">
<path class="cls-1" d="M17.43,8.16A6.07,6.07,0,0,0,12,5,6.07,6.07,0,0,0,6.57,8.16,5.62,5.62,0,0,0,2,13.5,5.77,5.77,0,0,0,8,19a6.48,6.48,0,0,0,2.26-.41,3.9,3.9,0,0,0,3.48,0A6.48,6.48,0,0,0,16,19a5.77,5.77,0,0,0,6-5.5A5.62,5.62,0,0,0,17.43,8.16Z"/>
</g>
</svg>